<svg id="Capa_1" enable-background="new 0 0 512 512" height="512" viewBox="0 0 512 512" width="512" xmlns="http://www.w3.org/2000/svg"><g><path d="m509.671 247.972c-.77-1.214-19.206-30.063-51.351-59.103-33.495-30.258-69.66-49.484-106.111-56.67-20.054-28.017-60.562-71.143-125.525-82.957-10.052-1.838-18.98 6.747-17.533 16.879 4.634 32.436 3.701 62.019 2.152 80.85-28.17 9.607-57.642 24.157-80.083 44.27-28.023-20.517-62.536-43.924-85.649-53.168-6.3-2.519-13.501-.497-17.57 4.928-26.617 35.488-27.955 101.953-27.999 104.765-.003.156-.003.312 0 .469.044 2.811 1.382 69.277 27.998 104.765 4.041 5.387 11.23 7.463 17.57 4.928 17.467-6.985 43.094-22.571 76.276-46.374 23.14 25.016 57.449 42.56 89.456 53.475 1.548 18.831 2.482 48.414-2.152 80.85-1.445 10.12 7.465 18.717 17.533 16.879 64.964-11.813 105.472-54.94 125.525-82.957 36.451-7.186 72.617-26.412 106.111-56.67 32.145-29.039 50.581-57.889 51.351-59.103 3.107-4.901 3.107-11.155.001-16.056zm-268.383-164.171c30.485 9.938 53.485 28.123 69.667 45.332-23.172.646-46.555 3.753-68.992 9.042.8-14.892.998-33.684-.675-54.374zm-195.465 240.932c-12.097-24.64-15.545-62.258-15.821-76.73.277-14.487 3.728-52.104 15.824-76.741 16.16 8.42 38.638 23.029 65.36 42.496-15.596 22.918-19.118 47.76-6.585 73.243-23.795 17.057-43.985 30.012-58.778 37.732zm195.465 103.467c1.673-20.689 1.475-39.481.674-54.374 22.437 5.289 45.82 8.396 68.992 9.042-16.18 17.209-39.181 35.394-69.666 45.332zm196.35-126.815c-38.125 34.249-77.703 51.615-117.638 51.615-30.432 0-61.477-4.726-89.94-13.406-.268-.09-.538-.177-.812-.252-16.379-5.047-31.894-11.4-45.921-18.926-35.27-18.924-56.327-43.005-56.327-64.416s21.057-45.491 56.327-64.416c37.049-19.878 86.609-32.584 136.673-32.584 39.935 0 79.513 17.366 117.638 51.615 19.584 17.594 33.776 35.419 41.086 45.385-7.31 9.966-21.502 27.791-41.086 45.385z"/><path d="m398.71 221.07c-2.482-11.831-16.908-16.112-25.32-7.67-5.61 5.626-6.091 14.944 0 21.21 10.73 10.431 28.028.94 25.32-13.54z"/><path d="m327 256c0-32.335 11.49-45.277 11.606-45.394 9.477-9.474 2.638-25.606-10.606-25.606-3.839 0-7.678 1.465-10.606 4.394-2.088 2.087-20.394 21.69-20.394 66.606s18.306 64.52 20.394 66.606c2.929 2.93 6.767 4.394 10.606 4.394 13.244 0 20.083-16.131 10.606-25.606-.116-.116-11.606-13.059-11.606-45.394z"/></g></svg>