<svg id="Capa_1" enable-background="new 0 0 511.889 511.889" height="512" viewBox="0 0 511.889 511.889" width="512" xmlns="http://www.w3.org/2000/svg"><g><path d="m463.477 126.165c34.294-34.281 32.179-32.193 32.286-32.274 21.494-21.493 21.497-56.286 0-77.782-21.445-21.445-56.338-21.444-77.781 0l-32.229 32.229c-30.816-14.188-64.825-18.076-98.636-13.676-17.799-14.676-49.05-34.662-87.244-34.662-60.691 0-103.743 34.942-105.546 36.429-9.779 8.068-5.698 23.996 6.836 26.324 12.586 2.337 44.627 12.325 59.781 32.289-39.172 36.104-65.921 83.671-73.932 134.544-41.083 2.229-78.475 31.849-85.897 73.817-.23 1.235-.423 2.22-.552 3.557-3.309 34.109 8.052 63.664 34.731 90.353 8.137 8.14 22.092 4.436 25.092-6.704 7.863-29.197 25.869-43.302 42.743-50.052 15.516 30.113 39.372 53.253 68.217 68.107-6.738 16.896-20.843 34.945-50.084 42.82-11.101 2.99-14.879 16.92-6.704 25.093 25.282 25.272 56.469 39.394 91.059 34.266 42.48-6.028 74.422-43.143 76.695-86.078 50.989-8.089 98.335-34.79 134.442-73.894 20.012 15.132 30.023 47.227 32.361 59.812 2.277 12.527 18.219 16.694 26.328 6.862 1.487-1.803 36.43-44.854 36.43-105.546 0-36.824-17.887-67.032-34.661-87.266 4.252-33.158.606-67.319-13.735-98.568zm-64.7 199.816-44.789-44.789 21.407-53.516 73.404-32.574c1.139 44.184-15.905 91.776-50.022 130.879zm-127.142-31.431-54.376-54.377 21.285-53.213 53.213-21.285 54.377 54.377-21.286 53.213zm-83.513-62.313-73.582 29.339c-.226-46.378 18.932-91.691 50.067-127.338l44.796 44.796zm216.462-133.29c12.243 12.243 31.938 30.105 40.238 65.097l-77.762 34.508-53.78-53.779 34.782-77.697c21.792 5.215 41.17 16.519 56.522 31.871zm34.611-61.624c9.748-9.748 25.607-9.748 35.355 0 9.77 9.77 9.771 25.584 0 35.355l-26.701 26.691c-9.877-13.649-21.692-25.47-35.333-35.369zm-122.193 25.716-32.843 73.364-53.543 21.418-44.792-44.792c36.322-31.664 83.45-51.302 131.178-49.99zm-177.045-19.195c15.236-7.068 36.066-13.844 59.916-13.844 18.077 0 34.468 6.169 47.722 13.671-22.301 7.323-43.705 18.256-63.385 32.4-11.979-15.369-29.114-25.621-44.253-32.227zm-98.546 313.607c-9.139-14.635-12.667-30.121-10.996-47.512 3.929-25.474 26.171-46.692 54.095-50.058-.125 18.426 2.375 36.175 7.403 52.877-16.945 6.818-37.022 19.841-50.502 44.693zm76.38-64.875 78.246-31.198 54.611 54.611-31.146 78.114c-54.247-11.403-90.971-50.931-101.711-101.527zm83.575 188.571c-16.855 2.44-32.63-1.794-46.904-10.708 24.848-13.492 37.865-33.584 44.673-50.53 17.198 5.141 35.253 7.521 52.883 7.435-3.198 27.174-23.738 50.004-50.652 53.803zm49.145-83.812 29.423-73.793 52.841-21.137 44.798 44.798c-38.832 33.957-84.456 50.286-127.062 50.132zm231.362-85.335c0 23.856-6.777 44.685-13.844 59.919-6.613-15.156-16.879-32.311-32.275-44.294 14.195-19.69 25.151-41.062 32.465-63.311 7.497 13.258 13.654 29.636 13.654 47.686z"/></g></svg>